<mxfile host="Electron" agent="Mozilla/5.0 (Windows NT 10.0; Win64; x64) AppleWebKit/537.36 (KHTML, like Gecko) draw.io/27.0.5 Chrome/134.0.6998.205 Electron/35.3.0 Safari/537.36" version="27.0.5">
  <diagram name="Page-1" id="F4cBk_nxOavGQBkp2mOk">
    <mxGraphModel dx="642" dy="373" grid="1" gridSize="10" guides="1" tooltips="1" connect="1" arrows="1" fold="1" page="1" pageScale="1" pageWidth="850" pageHeight="1100" math="0" shadow="0">
      <root>
        <mxCell id="0" />
        <mxCell id="1" parent="0" />
        <mxCell id="DxYS2cqX4XwIYXVKy6YZ-1" value="" style="rounded=0;whiteSpace=wrap;html=1;" parent="1" vertex="1">
          <mxGeometry x="160" y="380" width="70" height="60" as="geometry" />
        </mxCell>
        <mxCell id="DxYS2cqX4XwIYXVKy6YZ-2" value="" style="rounded=0;whiteSpace=wrap;html=1;" parent="1" vertex="1">
          <mxGeometry x="170" y="390" width="70" height="60" as="geometry" />
        </mxCell>
        <mxCell id="DxYS2cqX4XwIYXVKy6YZ-7" style="edgeStyle=orthogonalEdgeStyle;rounded=0;orthogonalLoop=1;jettySize=auto;html=1;entryX=0;entryY=0.5;entryDx=0;entryDy=0;" parent="1" source="DxYS2cqX4XwIYXVKy6YZ-3" target="DxYS2cqX4XwIYXVKy6YZ-5" edge="1">
          <mxGeometry relative="1" as="geometry" />
        </mxCell>
        <mxCell id="DxYS2cqX4XwIYXVKy6YZ-3" value="CSVs" style="rounded=0;whiteSpace=wrap;html=1;" parent="1" vertex="1">
          <mxGeometry x="180" y="400" width="70" height="60" as="geometry" />
        </mxCell>
        <mxCell id="DxYS2cqX4XwIYXVKy6YZ-9" style="edgeStyle=orthogonalEdgeStyle;rounded=0;orthogonalLoop=1;jettySize=auto;html=1;entryX=0.5;entryY=0;entryDx=0;entryDy=0;" parent="1" source="DxYS2cqX4XwIYXVKy6YZ-4" target="DxYS2cqX4XwIYXVKy6YZ-5" edge="1">
          <mxGeometry relative="1" as="geometry" />
        </mxCell>
        <mxCell id="DxYS2cqX4XwIYXVKy6YZ-4" value="Configure File" style="rounded=0;whiteSpace=wrap;html=1;" parent="1" vertex="1">
          <mxGeometry x="330" y="300" width="70" height="60" as="geometry" />
        </mxCell>
        <mxCell id="DxYS2cqX4XwIYXVKy6YZ-8" style="edgeStyle=orthogonalEdgeStyle;rounded=0;orthogonalLoop=1;jettySize=auto;html=1;entryX=0;entryY=0.5;entryDx=0;entryDy=0;" parent="1" source="DxYS2cqX4XwIYXVKy6YZ-5" target="DxYS2cqX4XwIYXVKy6YZ-6" edge="1">
          <mxGeometry relative="1" as="geometry" />
        </mxCell>
        <mxCell id="DxYS2cqX4XwIYXVKy6YZ-5" value="ETL Software" style="rounded=0;whiteSpace=wrap;html=1;" parent="1" vertex="1">
          <mxGeometry x="330" y="400" width="70" height="60" as="geometry" />
        </mxCell>
        <mxCell id="DxYS2cqX4XwIYXVKy6YZ-6" value="CSV" style="rounded=0;whiteSpace=wrap;html=1;" parent="1" vertex="1">
          <mxGeometry x="480" y="400" width="70" height="60" as="geometry" />
        </mxCell>
        <mxCell id="XfIXcFuXhcAhlS3sl6Bt-2" value="ETL Files" style="rounded=0;whiteSpace=wrap;html=1;" vertex="1" parent="1">
          <mxGeometry x="310" y="170" width="70" height="60" as="geometry" />
        </mxCell>
        <mxCell id="XfIXcFuXhcAhlS3sl6Bt-4" value="ETL Files" style="rounded=0;whiteSpace=wrap;html=1;" vertex="1" parent="1">
          <mxGeometry x="320" y="180" width="70" height="60" as="geometry" />
        </mxCell>
        <mxCell id="XfIXcFuXhcAhlS3sl6Bt-6" style="edgeStyle=orthogonalEdgeStyle;rounded=0;orthogonalLoop=1;jettySize=auto;html=1;entryX=0.5;entryY=0;entryDx=0;entryDy=0;" edge="1" parent="1" source="XfIXcFuXhcAhlS3sl6Bt-5" target="DxYS2cqX4XwIYXVKy6YZ-4">
          <mxGeometry relative="1" as="geometry" />
        </mxCell>
        <mxCell id="XfIXcFuXhcAhlS3sl6Bt-5" value="ETL Files" style="rounded=0;whiteSpace=wrap;html=1;" vertex="1" parent="1">
          <mxGeometry x="330" y="190" width="70" height="60" as="geometry" />
        </mxCell>
      </root>
    </mxGraphModel>
  </diagram>
</mxfile>
